<svg width="286" height="115" viewBox="0 0 286 115" version="1.1" xmlns="http://www.w3.org/2000/svg" xmlns:xlink="http://www.w3.org/1999/xlink" xml:space="preserve" xmlns:serif="http://www.serif.com/" style="fill-rule:evenodd;clip-rule:evenodd;stroke-linejoin:round;stroke-miterlimit:2;">
    <g transform="matrix(1.2696,0,0,1.2696,-312.55,-1037.21)">
        <g transform="matrix(1,0,0,1,246.301,816.956)">
            <path d="M-0,-0L-0,31.97C1.428,30.207 3.353,28.805 5.784,27.773C8.453,26.615 11.449,26.036 14.772,26.036C19.807,26.036 23.798,27.309 26.743,29.851C27.678,30.643 28.449,31.549 29.09,32.546L29.09,9.647L40.003,9.647L40.003,31.247C42.899,27.773 46.536,26.036 50.917,26.036C58.383,26.036 62.735,29.705 64,37.013L64,0L0,0ZM14.206,34.117C12.368,34.117 10.921,34.559 9.863,35.44C8.831,36.321 8.315,37.529 8.315,39.064L0,39.064L0,47.291C0.399,46.909 0.821,46.54 1.289,46.201C4.512,43.885 9.157,42.716 15.225,42.691L20.247,42.691L20.247,40.349C20.247,38.461 19.758,36.951 18.776,35.818C17.819,34.685 16.296,34.117 14.206,34.117ZM46.952,34.91C43.754,34.91 41.438,36.145 40.003,38.612L40.003,64L53.484,64L53.484,41.784C53.484,39.442 52.981,37.719 51.974,36.611C50.967,35.478 49.293,34.91 46.952,34.91ZM16.171,49.073C10.707,49.073 7.799,50.961 7.446,54.737L7.408,55.38C7.408,56.74 7.886,57.86 8.842,58.741C9.799,59.622 11.11,60.062 12.771,60.062C14.383,60.062 15.868,59.71 17.228,59.005C18.587,58.275 19.593,57.305 20.247,56.097L20.247,49.073L16.171,49.073ZM20.702,63.989C20.699,63.992 20.694,63.996 20.69,64L20.704,64C20.703,63.997 20.703,63.993 20.702,63.989Z" style="fill:rgb(249,250,251);fill-rule:nonzero;"/>
        </g>
        <g transform="matrix(1.3854,0,0,1.3854,-358.484,-112.879)">
            <text x="491.484px" y="688.346px" style="font-family:'Arial-BoldMT', 'Arial', sans-serif;font-weight:700;font-size:23.964px;fill:rgb(249,250,251);">Alexys</text>
            <g transform="matrix(23.9642,0,0,23.9642,600.668,713.094)">
            </g>
            <text x="491.484px" y="713.094px" style="font-family:'Arial-BoldMT', 'Arial', sans-serif;font-weight:700;font-size:23.964px;fill:rgb(249,250,251);">Hegmann</text>
        </g>
        <g transform="matrix(0.643025,0,0,0.643025,116.298,324.108)">
            <g transform="matrix(24,0,0,24,507.507,901.81)">
            </g>
            <text x="234.015px" y="901.81px" style="font-family:'ArialMT', 'Arial', sans-serif;font-size:24px;fill:rgb(249,250,251);">Senior Software Engineer</text>
        </g>
    </g>
</svg>
