<?xml version="1.0" encoding="UTF-8" standalone="no"?>
<svg
  width="100%"
  height="100%"
  viewBox="0 0 64 64"
  version="1.1"
  xmlns="http://www.w3.org/2000/svg"
  xmlns:xlink="http://www.w3.org/1999/xlink"
  xml:space="preserve"
  xmlns:serif="http://www.serif.com/"
  style=""
  fill="currentColor"
>
  <path d="M-0,-0l-0,31.97c1.428,-1.763 3.353,-3.165 5.784,-4.197c2.669,-1.158 5.665,-1.737 8.988,-1.737c5.035,0 9.026,1.273 11.971,3.815c0.935,0.792 1.706,1.698 2.347,2.695l-0,-22.899l10.913,0l0,21.6c2.896,-3.474 6.533,-5.211 10.914,-5.211c7.466,0 11.818,3.669 13.083,10.977l0,-37.013l-64,-0Zm14.206,34.117c-1.838,-0 -3.285,0.442 -4.343,1.323c-1.032,0.881 -1.548,2.089 -1.548,3.624l-8.315,0l-0,8.227c0.399,-0.382 0.821,-0.751 1.289,-1.09c3.223,-2.316 7.868,-3.485 13.936,-3.51l5.022,-0l0,-2.342c0,-1.888 -0.489,-3.398 -1.471,-4.531c-0.957,-1.133 -2.48,-1.701 -4.57,-1.701Zm32.746,0.793c-3.198,0 -5.514,1.235 -6.949,3.702l0,25.388l13.481,-0l0,-22.216c0,-2.342 -0.503,-4.065 -1.51,-5.173c-1.007,-1.133 -2.681,-1.701 -5.022,-1.701Zm-30.781,14.163c-5.464,0 -8.372,1.888 -8.725,5.664l-0.038,0.643c-0,1.36 0.478,2.48 1.434,3.361c0.957,0.881 2.268,1.321 3.929,1.321c1.612,-0 3.097,-0.352 4.457,-1.057c1.359,-0.73 2.365,-1.7 3.019,-2.908l0,-7.024l-4.076,0Zm4.531,14.916c-0.003,0.003 -0.008,0.007 -0.012,0.011l0.014,0c-0.001,-0.003 -0.001,-0.007 -0.002,-0.011l0,-0Z" />
</svg>
